Coordinates
version=1
nRows=24
nColumns=24
inDegrees=yes

Units are S.I. units (second, meters, Newtons, ...)
Angles are in degrees.

endheader
time	pelvis_tilt	pelvis_list	pelvis_rotation	pelvis_tx	pelvis_ty	pelvis_tz	hip_flexion_r	hip_adduction_r	hip_rotation_r	knee_angle_r	ankle_angle_r	subtalar_angle_r	mtp_angle_r	hip_flexion_l	hip_adduction_l	hip_rotation_l	knee_angle_l	ankle_angle_l	subtalar_angle_l	mtp_angle_l	lumbar_extension	lumbar_bending	lumbar_rotation
      3.94500000	     -5.16519313	      7.46795415	     -0.72022971	     -0.71662109	     -0.01560369	     -0.11856427	     31.48413685	     -7.75934554	     -0.69886685	    -66.83961737	     -9.12268579	      2.79217556	     15.26028353	     10.28470680	     17.58978995	      1.06143930	    -12.37477860	      3.74903894	     -4.23694264	    -14.50331422	      5.72613490	     -9.54394839	     -2.78287387
      3.95000000	     -5.08319306	      7.25103107	     -0.67441521	     -0.71084010	     -0.01499130	     -0.11880621	     32.03009636	     -7.42375249	     -0.85920035	    -65.85602434	     -8.62519163	      2.85465897	     15.30959687	      9.48008037	     17.38254606	      1.27114565	    -11.98593485	      4.01283699	     -4.03665260	    -14.43637959	      5.60035307	     -9.34037260	     -2.91202603
      3.95500000	     -4.99741609	      7.04342647	     -0.61157644	     -0.70506461	     -0.01443809	     -0.11904375	     32.53943683	     -7.10345549	     -1.02589660	    -64.80491874	     -8.14981506	      2.97835385	     15.37964004	      8.68443462	     17.17806437	      1.45705213	    -11.61826661	      4.29135987	     -3.76296781	    -14.30161547	      5.46506432	     -9.15148094	     -3.04064009
      3.96000000	     -4.93383908	      6.83538149	     -0.55475682	     -0.69927392	     -0.01398557	     -0.11926579	     33.04830607	     -6.77880954	     -1.19142455	    -63.69345687	     -7.70774545	      3.15619166	     15.45975211	      7.93073563	     16.96937180	      1.60708802	    -11.27616052	      4.59236834	     -3.49507621	    -14.12673507	      5.36171426	     -8.96681186	     -3.16218492
      3.96500000	     -4.86290761	      6.63537520	     -0.48326086	     -0.69352734	     -0.01358072	     -0.11947719	     33.51675095	     -6.45990195	     -1.34488075	    -62.51438253	     -7.26688300	      3.38237937	     15.55527877	      7.18867557	     16.76444584	      1.75317995	    -10.96130820	      4.87588113	     -3.19501163	    -13.91515605	      5.23597987	     -8.78736524	     -3.29297657
      3.97000000	     -4.81689411	      6.43138239	     -0.41977113	     -0.68777983	     -0.01328209	     -0.11968239	     33.99041902	     -6.13314869	     -1.49646789	    -61.28337736	     -6.84594240	      3.65248332	     15.65437626	      6.48781345	     16.55649963	      1.89141953	    -10.66386437	      5.16380581	     -2.94747466	    -13.70494524	      5.13576439	     -8.60283053	     -3.41530125
      3.97500000	     -4.77507467	      6.23701763	     -0.34724513	     -0.68204019	     -0.01303575	     -0.11983888	     34.43245145	     -5.80749608	     -1.62782264	    -59.98575130	     -6.43359125	      3.96346018	     15.75833644	      5.80802156	     16.35496592	      2.05652022	    -10.39626070	      5.43369270	     -2.72753433	    -13.50100308	      5.04222093	     -8.44087386	     -3.52810472
      3.98000000	     -4.73699016	      6.05085087	     -0.26971663	     -0.67630774	     -0.01287027	     -0.11999861	     34.85268948	     -5.49159814	     -1.75161286	    -58.63927596	     -6.02760202	      4.31308398	     15.86826228	      5.14041958	     16.16601798	      2.23782527	    -10.13988287	      5.70212575	     -2.56282688	    -13.31135885	      4.94993856	     -8.28518518	     -3.64478030
      3.98500000	     -4.68889516	      5.87196611	     -0.19404971	     -0.67055918	     -0.01277676	     -0.12015790	     35.23538713	     -5.19097764	     -1.88155069	    -57.25000377	     -5.61890124	      4.70748917	     15.99232702	      4.46095326	     15.98806227	      2.44465340	     -9.88115841	      5.97241283	     -2.45910594	    -13.13313312	      4.84953936	     -8.14363825	     -3.78193667
      3.99000000	     -4.65922206	      5.70133252	     -0.11360968	     -0.66486090	     -0.01274622	     -0.12028240	     35.60785561	     -4.88925341	     -1.98668496	    -55.80305335	     -5.21744233	      5.11781311	     16.11021157	      3.82232991	     15.81773440	      2.68336588	     -9.65163128	      6.20282777	     -2.41871837	    -12.99550890	      4.75558986	     -8.01529261	     -3.90203615
      3.99500000	     -4.70885286	      5.54526414	     -0.04410544	     -0.65919497	     -0.01286024	     -0.12037685	     36.05176792	     -4.57360339	     -2.02546155	    -54.31932923	     -4.88156285	      5.49065549	     16.16989583	      3.29506630	     15.66212624	      2.91422298	     -9.45847320	      6.44780061	     -2.41191899	    -12.91089960	      4.75185456	     -7.88873208	     -3.94816593
      4.00000000	     -4.62129125	      5.39933586	      0.07629778	     -0.65353573	     -0.01288317	     -0.12055188	     36.28672002	     -4.33738779	     -2.15239233	    -52.77437503	     -4.41916002	      6.00423367	     16.32697192	      2.59774845	     15.52585033	      3.22571813	     -9.23896136	      6.63996128	     -2.46975325	    -12.84809494	      4.58008934	     -7.79705617	     -4.15840994
      4.00500000	     -4.68522900	      5.26306993	      0.15429836	     -0.64794188	     -0.01311421	     -0.12063304	     36.68432911	     -4.05072880	     -2.17865203	    -51.19634005	     -4.08421759	      6.39944514	     16.37394316	      2.11689106	     15.39142620	      3.46045448	     -9.08832451	      6.86504169	     -2.51687469	    -12.80497828	      4.57353236	     -7.69755384	     -4.21083544
      4.01000000	     -4.62379538	      5.14734348	      0.29606096	     -0.64236492	     -0.01326738	     -0.12082936	     36.88681055	     -3.86185339	     -2.29582995	    -49.56632956	     -3.60568067	      6.91175048	     16.50393220	      1.48400164	     15.28771778	      3.76094795	     -8.92260572	      7.05425419	     -2.60456183	    -12.80422662	      4.41399988	     -7.63578223	     -4.42153258
      4.01500000	     -4.62662054	      5.04390843	      0.41943306	     -0.63683706	     -0.01352180	     -0.12097660	     37.13958186	     -3.65791699	     -2.34933790	    -47.90001199	     -3.20421000	      7.35604948	     16.56961452	      0.94134399	     15.18960790	      4.03521205	     -8.77966138	      7.24803733	     -2.67878554	    -12.82032779	      4.31916192	     -7.58260297	     -4.56445696
      4.02000000	     -4.64332315	      4.96135294	      0.55067450	     -0.63135681	     -0.01382885	     -0.12112257	     37.37634424	     -3.48217939	     -2.38883955	    -46.19716490	     -2.80070875	      7.79036384	     16.61362070	      0.43286002	     15.10845949	      4.27459284	     -8.66388818	      7.45675223	     -2.69644303	    -12.83635079	      4.23038625	     -7.55211851	     -4.71702661
      4.02500000	     -4.66305299	      4.89219135	      0.69598315	     -0.62591358	     -0.01417421	     -0.12130129	     37.57964102	     -3.33972826	     -2.43915700	    -44.45521407	     -2.38117679	      8.21733735	     16.64111140	     -0.05281001	     15.03907783	      4.46177095	     -8.57921364	      7.68999000	     -2.64724730	    -12.83937920	      4.14030079	     -7.52913807	     -4.87376305
      4.03000000	     -4.69498120	      4.83817848	      0.84158681	     -0.62051507	     -0.01456145	     -0.12145784	     37.76421006	     -3.21937959	     -2.49109358	    -42.67895455	     -1.95864870	      8.62248272	     16.64684846	     -0.50727092	     14.97641590	      4.59448242	     -8.51874264	      7.93978698	     -2.51734177	    -12.81883674	      4.04995297	     -7.52717194	     -5.03067479
      4.03500000	     -4.70904025	      4.79585504	      1.00323500	     -0.61515008	     -0.01494612	     -0.12163368	     37.88842877	     -3.13173886	     -2.55665960	    -40.86723962	     -1.52715009	      9.02669863	     16.63092882	     -0.96678167	     14.91742977	      4.66828217	     -8.48306077	      8.22280002	     -2.26233467	    -12.77115469	      3.92951543	     -7.53964306	     -5.21617201
      4.04000000	     -4.72378377	      4.76596732	      1.16865300	     -0.60982441	     -0.01534962	     -0.12180733	     37.97728104	     -3.06770903	     -2.62782536	    -39.02521207	     -1.09928588	      9.40911015	     16.58164824	     -1.40308979	     14.86076219	      4.65127052	     -8.48181890	      8.55001430	     -1.85829509	    -12.68098663	      3.80288433	     -7.56289907	     -5.40787720
      4.04500000	     -4.74463998	      4.74291101	      1.33692999	     -0.60452394	     -0.01578019	     -0.12197945	     38.03663653	     -3.02518430	     -2.72717727	    -37.15682477	     -0.66694988	      9.77504806	     16.50557255	     -1.80732377	     14.80104901	      4.52690786	     -8.52142068	      8.92788479	     -1.30103246	    -12.53509049	      3.67554228	     -7.59237945	     -5.59717237
      4.05000000	     -4.78006469	      4.71626680	      1.50628566	     -0.59921960	     -0.01625293	     -0.12217570	     38.07754135	     -3.00100320	     -2.89231974	    -35.26976248	     -0.22088942	     10.13115609	     16.42234375	     -2.17584877	     14.73325194	      4.32399857	     -8.59520207	      9.33638237	     -0.66841706	    -12.33935141	      3.56382520	     -7.60998941	     -5.76396553
      4.05500000	     -4.80591376	      4.70125753	      1.67704807	     -0.59393220	     -0.01671542	     -0.12235952	     38.07372460	     -2.99099978	     -3.04395746	    -33.37066797	      0.19598230	     10.46380937	     16.29518422	     -2.53188472	     14.66187054	      3.99729975	     -8.70732678	      9.79887450	      0.18005023	    -12.07753918	      3.43845784	     -7.63679947	     -5.95613118
      4.06000000	     -4.87131400	      4.70677611	      1.78216197	     -0.58870145	     -0.01725527	     -0.12233279	     38.10807235	     -2.93503514	     -3.08453824	    -31.48753247	      0.53877794	     10.69461186	     16.02563273	     -2.76562485	     14.58063615	      3.31622850	     -8.94439228	     10.44832839	      1.48651637	    -11.76244234	      3.34639186	     -7.70227194	     -6.05699768
